<?xml version="1.0" encoding="UTF-8"?>
<svg xmlns="http://www.w3.org/2000/svg" version="1.1" viewBox="0 0 1706.3 1664.7">
  <defs>
    <style>
      .cls-1, .cls-2 {
        fill: #004e98;
      }

      .cls-3 {
        fill: #ff6700;
      }

      .cls-2 {
        stroke-linecap: round;
        stroke-linejoin: round;
        stroke-width: 12.4px;
      }

      .cls-2, .cls-4, .cls-5 {
        stroke: #004e98;
      }

      .cls-4 {
        stroke-width: 9.6px;
      }

      .cls-4, .cls-5 {
        fill: none;
        stroke-miterlimit: 10;
      }

      .cls-5 {
        stroke-width: 29.1px;
      }
    </style>
  </defs>
  <!-- Generator: Adobe Illustrator 28.7.1, SVG Export Plug-In . SVG Version: 1.2.0 Build 142)  -->
  <g>
    <g id="Layer_1">
      <g>
        <ellipse class="cls-4" cx="853.1" cy="832.4" rx="774.4" ry="755.2"/>
        <ellipse class="cls-5" cx="853.1" cy="832.4" rx="828.5" ry="808"/>
        <g>
          <polygon class="cls-3" points="284.1 729.3 258.1 680.3 202.8 675.8 241.4 636 228.5 582 278.4 606.4 325.7 577.5 317.9 632.4 360 668.5 305.4 678.1 284.1 729.3"/>
          <polygon class="cls-3" points="339.9 461.4 370.9 416.4 349.7 366 402.1 381.6 443.5 345.8 444.8 400.5 491.7 428.8 440.1 447 427.6 500.2 394.4 456.8 339.9 461.4"/>
          <polygon class="cls-3" points="575.1 344.4 598.6 294.2 568.9 247.4 624 254.2 659.4 211.5 669.9 266 721.4 286.4 672.9 313.2 669.3 368.6 628.8 330.7 575.1 344.4"/>
        </g>
        <path class="cls-3" d="M1348.8,1179.5c-3.1,18.3-18.8,30.1-30.7,43.3-6.4,7.1-12.8,14.2-19.2,21.4-7.4,8.2-20,8.8-28.2,1.5l-10.4-10.4s-399.4-382.3-496.4-148.4c-88.8,214.1-302,74.5-337.3,49.4l-20.7,40.6c-5,9.8-20.1,22.2-29.9,17.2-9.8-5-10.7-25.5-5.7-35.3l28.2-55.5c5-9.8,17.1-13.8,26.9-8.7,1.4.7,2.6,1.5,3.8,2.6,28.6,8.8,98.9,27.2,169.2,18.4,0,0-10.2-147.3,85.6-251.1,68.5-74.2,39.9-233.9,39.9-233.9,0,0-65.1-50.2-238.1,74.2-5.3,3.8-12.2-2.8-9.1-8.6,3.9-7.2,8-14.2,12.4-21,5.7-8.8,11.8-17.3,18.2-25.5,7.6-9.6,15.8-18.8,24.5-27.4,9.8-9.7,20.2-18.8,31.2-27.1,12.1-9.1,24.9-17.3,38.3-24.4,14.7-7.8,30.1-14.2,46-19.3,17.6-5.6,35.7-9.6,54-11.9,20.7-2.6,41.7-3.3,62.6-2.2,10.9.6,21.9,1.3,32.8,3,11.7,1.8,23.6,4.1,35.3,1.7,5.7-1.1,11.4-3.5,15.4-7.8.7-.8,1.5-1.8,1.3-2.9-.1-.7-.6-1.2-1.1-1.7-12.5-13.4-22.4-25.4-25.4-44-2.7-16.8.4-34.7,9.4-49.2,14.8-23.8,44.7-37.3,72.3-32.6,27.6,4.7,51.4,27.3,57.5,54.6,6.4,28.9-7.4,63.1-34.2,77-16.5,8.6-38.8,10.9-45.6,31-.9,2.5-1.4,5.2-.8,7.8.9,3.5,3.8,6,6.4,8.3s5.5,5.4,8.3,8.1c5.4,5.2,11,10.2,16.8,15,9.4,7.7,19.4,14.8,29.8,21.1,10.9,6.5,22.5,12.1,34.6,16.1,12.3,4.1,25.2,6.6,38.1,6.9,13.8.3,27.5-2,40.5-6.6,15.3-5.4,29.3-14,41.7-24.3,16.1-13.3,29.8-29.3,41.8-46.2,7.5-10.6,14.4-21.7,20.7-33,3.5-6.3,13.2-3,12.1,4.2-9.8,61.9-53.8,189.6-248.2,189.6l-5.7,165.5s186.9,11.4,368.9,299.3c11.6-13,23.3-30.8,39.7-38,5.6-2.4,12.5-3.3,17.4.4,4.6,3.5,5.8,10.1,5.3,15.9,0,1.1-.2,2.3-.4,3.3Z"/>
        <path class="cls-2" d="M1467.2,840.8c0-1,0-2-.1-3.1,0-.5,0-1-.1-1.4,0-.5,0-.9-.1-1.4,0-.5-.2-1.1-.3-1.6-.1-.9-.3-1.8-.5-2.7,0-.3-.2-.7-.2-1-2.1-8.4-6.2-16.1-12.3-22.1-5.4-5.4-12-9.3-19.6-11.8-.7-.2-1.4-.5-2.1-.7-.4-.1-.9-.2-1.3-.4-4.8-1.3-9.8-2-14.8-1.9-.5,0-1,0-1.4,0-4.6,0-9.7.9-15,2.7-9.9,3-19.1,8.4-27.6,14.4-1.7,1.2-3.3,2.4-4.9,3.6-1.5,1.1-2.9,2.2-4.4,3.4-17,13.3-31.1,29.8-47.6,43.6-8.4,7-17.1,13.8-26.9,18.9-9.2,4.8-19.6,8-29.9,8.2-7.8-.3-14.9-1.8-21.1-4.6-8.6-4.2-15.9-10.9-20.5-19.3-7.2-13.1-7.3-30,.8-42.6,4.5-6.9,11.1-12.1,18.7-15.4,6.5-2.6,14.1-4.1,22.6-4.2,7.3.2,14.6,1.7,21.6,4.2,12.5,4.8,25,13,35.1,20.6h0c.6.5,1.3,1,1.9,1.5.9-.9,1.8-1.8,2.7-2.7-.7-.5-1.3-1-2-1.5h0s0,0,0,0c-10.3-8-21.4-15.3-33.4-20.1-8.8-3.8-16.9-5.7-24-5.7s-1.9,0-2.8,0c-9.7,0-19.4,2.1-27.7,6.7-3.1,1.7-6,3.6-8.6,5.8-9.1,8-13.9,19.1-13.9,32.2s0,.6,0,.9c0,1,0,2,.1,3.1,0,.5,0,1,.1,1.4,0,.5,0,.9.1,1.4,0,.5.2,1.1.3,1.6.1.9.3,1.8.5,2.7,0,.3.2.7.2,1,2.1,8.4,6.2,16.1,12.3,22.1,5.4,5.4,12,9.3,19.6,11.8.7.2,1.4.5,2.1.7.4.1.8.2,1.3.3,4.8,1.3,9.8,2,14.8,1.9.5,0,.9,0,1.4,0,4.6,0,9.7-.9,15-2.7,9.9-3,19.1-8.4,27.6-14.4,1.7-1.2,3.3-2.4,4.9-3.6,1.5-1.1,2.9-2.2,4.4-3.4,17-13.3,31.1-29.8,47.6-43.6,8.4-7,17.1-13.8,26.9-18.9,9.2-4.8,19.6-8,29.9-8.2,7.8.3,14.9,1.8,21.1,4.6,8.6,4.2,15.9,10.9,20.5,19.3,7.2,13.1,7.3,30-.8,42.6-4.5,6.9-11.1,12.1-18.7,15.4-6.5,2.6-14.1,4.1-22.6,4.2-7.3-.2-14.6-1.7-21.6-4.2-12.5-4.8-25.1-13-35.1-20.6h0c-.6-.5-1.3-1-1.9-1.5-.9.9-1.8,1.8-2.7,2.7.7.5,1.3,1,2,1.5h0s0,0,0,0c10.3,8,21.4,15.3,33.4,20.1,8.8,3.8,16.9,5.7,24,5.7s1.9,0,2.8,0c9.7,0,19.4-2.1,27.7-6.7,3.1-1.7,6-3.6,8.6-5.8,9.1-8,13.9-19.1,13.9-32.2s0-.6,0-.9Z"/>
        <g>
          <path class="cls-1" d="M751.1,1436.2v-12.4l16.9-15.2c5.2-4.7,9.3-8.6,12.3-11.7,3-3.1,5.1-5.8,6.2-8.2,1.2-2.3,1.8-4.7,1.8-7.1,0-3.5-1.2-6.2-3.5-8.1-2.3-1.9-5.6-2.8-9.9-2.8s-6.8.7-10,2c-3.2,1.3-6,3.3-8.5,6l-6.4-13.6c3.6-3.3,7.7-5.8,12.4-7.5,4.7-1.8,9.5-2.6,14.4-2.6s11,1,15.3,3.1c4.4,2,7.7,4.9,10.1,8.5,2.4,3.7,3.5,7.9,3.5,12.7s-.6,6.4-1.9,9.5c-1.3,3.1-3.5,6.6-6.8,10.5s-7.8,8.6-13.7,14.1l-7.8,7.3h32.2v15.4h-56.7Z"/>
          <path class="cls-1" d="M852.2,1437.9c-5.4,0-10.2-1.1-14.4-3.2-4.2-2.2-7.7-5.1-10.6-9-2.9-3.8-5.1-8.2-6.6-13.2-1.5-5-2.2-10.3-2.2-16s.7-11.1,2.2-16.1c1.5-5,3.7-9.4,6.6-13.2,2.9-3.8,6.4-6.8,10.6-8.9,4.2-2.2,9-3.2,14.4-3.2s10.1,1.1,14.3,3.2c4.2,2.2,7.7,5.1,10.6,8.9,2.9,3.8,5.1,8.2,6.6,13.2s2.2,10.4,2.2,16.1-.7,11-2.2,16-3.7,9.4-6.6,13.2c-2.9,3.8-6.4,6.8-10.6,9-4.2,2.2-9,3.2-14.3,3.2ZM852.2,1421.7c2.4,0,4.6-.5,6.5-1.6,1.9-1.1,3.6-2.7,5-4.9,1.4-2.1,2.5-4.8,3.2-7.9s1.1-6.8,1.1-10.8-.7-10.1-2-13.8c-1.3-3.8-3.2-6.6-5.5-8.5-2.4-1.9-5.2-2.9-8.3-2.9s-4.6.5-6.5,1.6c-2,1.1-3.7,2.7-5.1,4.9-1.4,2.1-2.5,4.8-3.2,7.9-.7,3.1-1.1,6.8-1.1,10.8s.7,10,2,13.8c1.3,3.7,3.2,6.6,5.5,8.5,2.4,2,5.2,2.9,8.4,2.9Z"/>
          <path class="cls-1" d="M896.6,1436.2v-12.4l16.9-15.2c5.2-4.7,9.3-8.6,12.3-11.7,3-3.1,5.1-5.8,6.2-8.2,1.2-2.3,1.8-4.7,1.8-7.1,0-3.5-1.2-6.2-3.5-8.1-2.3-1.9-5.6-2.8-9.9-2.8s-6.8.7-10,2c-3.2,1.3-6,3.3-8.5,6l-6.4-13.6c3.6-3.3,7.7-5.8,12.4-7.5,4.7-1.8,9.5-2.6,14.4-2.6s11,1,15.3,3.1c4.4,2,7.7,4.9,10.1,8.5,2.4,3.7,3.5,7.9,3.5,12.7s-.6,6.4-1.9,9.5c-1.3,3.1-3.5,6.6-6.8,10.5-3.2,3.9-7.8,8.6-13.7,14.1l-7.8,7.3h32.2v15.4h-56.7Z"/>
          <path class="cls-1" d="M998.1,1436.2v-14.9h-37.8v-13.5l25.2-51.2h18.6l-24.4,49.5h18.5v-15.5h15.6v15.5h10.8v15.1h-10.8v14.9h-15.6Z"/>
        </g>
      </g>
    </g>
  </g>
</svg>